<svg xmlns="http://www.w3.org/2000/svg" height="556.44019" width="577.45831">
  <path 
    d="M501.31836 17.820312 487.625 35.896484c54.12084 41.000638 90.46141 106.912736 95.13477 175.865236 4.67335 68.9525-21.4919 140.84929-93.83204 196.59766l13.8418 17.96093c77.79194-59.94975 107.75556-140.25144 102.61524-216.09375-5.14033-75.8423-44.55518-147.321976-104.06641-192.406248Z" 
    style="color:#000;font-style:normal;font-variant:normal;font-weight:400;font-stretch:normal;font-size:medium;line-height:normal;font-family:sans-serif;font-variant-ligatures:normal;font-variant-position:normal;font-variant-caps:normal;font-variant-numeric:normal;font-variant-alternates:normal;font-feature-settings:normal;text-indent:0;text-align:start;text-decoration:none;text-decoration-line:none;text-decoration-style:solid;text-decoration-color:#000;letter-spacing:normal;word-spacing:normal;text-transform:none;writing-mode:lr-tb;direction:ltr;text-orientation:mixed;dominant-baseline:auto;baseline-shift:baseline;text-anchor:start;white-space:normal;shape-padding:0;clip-rule:nonzero;display:inline;overflow:visible;visibility:visible;opacity:1;isolation:auto;mix-blend-mode:normal;color-interpolation:sRGB;color-interpolation-filters:linearRGB;solid-color:#000;solid-opacity:1;vector-effect:none;fill:#fff;fill-opacity:1;fill-rule:nonzero;stroke:none;stroke-width:22.67716599;stroke-linecap:butt;stroke-linejoin:miter;stroke-miterlimit:4;stroke-dasharray:none;stroke-dashoffset:0;stroke-opacity:1;color-rendering:auto;image-rendering:auto;shape-rendering:auto;text-rendering:auto;enable-background:accumulate" 
    transform="translate(-28.485885 -17.820596)"/>
  <path 
    d="M190.32617 344.42188 28.486328 505.91797l42.714844 42.80664L233.04102 387.22852Z" 
    style="color:#000;font-style:normal;font-variant:normal;font-weight:400;font-stretch:normal;font-size:medium;line-height:normal;font-family:sans-serif;font-variant-ligatures:normal;font-variant-position:normal;font-variant-caps:normal;font-variant-numeric:normal;font-variant-alternates:normal;font-feature-settings:normal;text-indent:0;text-align:start;text-decoration:none;text-decoration-line:none;text-decoration-style:solid;text-decoration-color:#000;letter-spacing:normal;word-spacing:normal;text-transform:none;writing-mode:lr-tb;direction:ltr;text-orientation:mixed;dominant-baseline:auto;baseline-shift:baseline;text-anchor:start;white-space:normal;shape-padding:0;clip-rule:nonzero;display:inline;overflow:visible;visibility:visible;opacity:1;isolation:auto;mix-blend-mode:normal;color-interpolation:sRGB;color-interpolation-filters:linearRGB;solid-color:#000;solid-opacity:1;vector-effect:none;fill:#fff;fill-opacity:1;fill-rule:nonzero;stroke:none;stroke-width:60.47244263;stroke-linecap:butt;stroke-linejoin:miter;stroke-miterlimit:4;stroke-dasharray:none;stroke-dashoffset:0;stroke-opacity:1;color-rendering:auto;image-rendering:auto;shape-rendering:auto;text-rendering:auto;enable-background:accumulate" 
    transform="translate(-28.485885 -17.820596)"/>
  <path 
    d="m329.84375 42.476562-7.14844 2.460938c22.83087 66.32968 20.4679 138.53587 7.0625 200.61133-13.4054 62.07546-38.00053 114.08685-58.52539 139.33008l5.86328 4.76953c21.8415-26.86255 46.42936-79.42814 60.05078-142.50391 13.62143-63.07577 16.12853-136.594-7.30273-204.667968z" 
    style="color:#000;font-style:normal;font-variant:normal;font-weight:400;font-stretch:normal;font-size:medium;line-height:normal;font-family:sans-serif;font-variant-ligatures:normal;font-variant-position:normal;font-variant-caps:normal;font-variant-numeric:normal;font-variant-alternates:normal;font-feature-settings:normal;text-indent:0;text-align:start;text-decoration:none;text-decoration-line:none;text-decoration-style:solid;text-decoration-color:#000;letter-spacing:normal;word-spacing:normal;text-transform:none;writing-mode:lr-tb;direction:ltr;text-orientation:mixed;dominant-baseline:auto;baseline-shift:baseline;text-anchor:start;white-space:normal;shape-padding:0;clip-rule:nonzero;display:inline;overflow:visible;visibility:visible;opacity:1;isolation:auto;mix-blend-mode:normal;color-interpolation:sRGB;color-interpolation-filters:linearRGB;solid-color:#000;solid-opacity:1;vector-effect:none;fill:#fff;fill-opacity:1;fill-rule:nonzero;stroke:none;stroke-width:7.55905533;stroke-linecap:butt;stroke-linejoin:miter;stroke-miterlimit:4;stroke-dasharray:none;stroke-dashoffset:0;stroke-opacity:1;color-rendering:auto;image-rendering:auto;shape-rendering:auto;text-rendering:auto;enable-background:accumulate" 
    transform="translate(-28.485885 -17.820596)"/>
  <path 
    d="M428.74414 137.98828c-22.04859 13.98605-63.8499 25.22441-110.4043 31.68555-46.55439 6.46113-98.00956 8.33943-139.98046 4.58594l-.67188 7.52929c42.73664 3.82198 94.58543 1.91074 141.69141-4.62695 47.10598-6.53769 89.32115-17.5082 113.41406-32.79102zM399.95508 321.31836c-29.111 21.32549-64.61216 36.51594-154.16992 46.4668l.83593 7.51367c90.18752-10.02083 127.68536-25.82152 157.80079-47.88281Z" 
    style="color:#000;font-style:normal;font-variant:normal;font-weight:400;font-stretch:normal;font-size:medium;line-height:normal;font-family:sans-serif;font-variant-ligatures:normal;font-variant-position:normal;font-variant-caps:normal;font-variant-numeric:normal;font-variant-alternates:normal;font-feature-settings:normal;text-indent:0;text-align:start;text-decoration:none;text-decoration-line:none;text-decoration-style:solid;text-decoration-color:#000;letter-spacing:normal;word-spacing:normal;text-transform:none;writing-mode:lr-tb;direction:ltr;text-orientation:mixed;dominant-baseline:auto;baseline-shift:baseline;text-anchor:start;white-space:normal;shape-padding:0;clip-rule:nonzero;display:inline;overflow:visible;visibility:visible;opacity:1;isolation:auto;mix-blend-mode:normal;color-interpolation:sRGB;color-interpolation-filters:linearRGB;solid-color:#000;solid-opacity:1;vector-effect:none;fill:#fff;fill-opacity:1;fill-rule:nonzero;stroke:none;stroke-width:7.55905533;stroke-linecap:butt;stroke-linejoin:miter;stroke-miterlimit:4;stroke-dasharray:none;stroke-dashoffset:0;stroke-opacity:1;color-rendering:auto;image-rendering:auto;shape-rendering:auto;text-rendering:auto;enable-background:accumulate" 
    transform="translate(-28.485885 -17.820596)"/>
  <path 
    d="m395.05078 35.173828-9.98047 6.841797c75.0745 109.523245 56.03418 274.864045-51.91211 362.837895l7.64453 9.3789c113.138-92.20497 133.056-264.08876 54.24805-379.058592z" 
    style="color:#000;font-style:normal;font-variant:normal;font-weight:400;font-stretch:normal;font-size:medium;line-height:normal;font-family:sans-serif;font-variant-ligatures:normal;font-variant-position:normal;font-variant-caps:normal;font-variant-numeric:normal;font-variant-alternates:normal;font-feature-settings:normal;text-indent:0;text-align:start;text-decoration:none;text-decoration-line:none;text-decoration-style:solid;text-decoration-color:#000;letter-spacing:normal;word-spacing:normal;text-transform:none;writing-mode:lr-tb;direction:ltr;text-orientation:mixed;dominant-baseline:auto;baseline-shift:baseline;text-anchor:start;white-space:normal;shape-padding:0;clip-rule:nonzero;display:inline;overflow:visible;visibility:visible;opacity:1;isolation:auto;mix-blend-mode:normal;color-interpolation:sRGB;color-interpolation-filters:linearRGB;solid-color:#000;solid-opacity:1;vector-effect:none;fill:#fff;fill-opacity:1;fill-rule:nonzero;stroke:none;stroke-width:12.10000038;stroke-linecap:butt;stroke-linejoin:miter;stroke-miterlimit:4;stroke-dasharray:none;stroke-dashoffset:0;stroke-opacity:1;color-rendering:auto;image-rendering:auto;shape-rendering:auto;text-rendering:auto;enable-background:accumulate" 
    transform="translate(-28.485885 -17.820596)"/>
  <path 
    d="m429.12302 69.644358 4.47641 6.198113 11.70755 27.202829-14.46227 15.66745 9.29717 12.48231 14.80661 15.75354-3.70165 8.26415-3.35732 4.03517 3.17217 6.75677-9.37028.57127.51651 12.99882-2.49646 5.25118 4.99292 11.87971 3.27123-.43042 5.25118-7.57547 8.43632 10.41627 14.8066 8.86675 3.78774.68868 5.85377 8.86674 1.7217 27.9776 3.52948 2.8408-1.89387 29.18278 2.23821 20.40212-.77476 11.9658-7.48939 1.80779-7.66155-3.35731-1.46343-4.04599-3.5295-2.41038-4.30424.60259-4.30425 3.01297 1.03302 4.39033 7.91981 8.17807 4.21816 11.53538 11.19104 12.65448.77476 7.66156 3.95991 6.28419-8.26415 4.82076-2.23821 3.27122-7.91981 4.39033-7.31722-2.8408-3.35731 5.07901-18.76651 11.79363-37.70519-17.73349-5.07901 9.7276-5.07901-.77477-3.27122 5.25118-20.83255-7.05896 4.64858-6.88679 1.89387-13.34316-8.17806-6.62854-9.03892 1.54953-7.66155-5.59552-9.81368-.43042-11.10496-17.81958 4.64859-5.33726-4.99293-5.76769-2.06603-10.93279 2.32429-3.27122 7.14505 3.01297 7.48938-15.23703 18.42217-13.51533 16.35613 8.17807 2.3243-11.27713-1.63562-6.02594 7.57547-4.04599 10.07194-17.47523-6.88679-6.45637 1.63561-37.27477 21.52123-2.92688-4.64859-9.125-21.17689 7.74764-7.66155-3.4434-8.26415-23.15684-1.80779-21.86556.94694-7.05897 5.42335-4.5625-.51651-5.25117-10.33019-1.63562-5.33727-11.79363-3.35731-2.41038-1.63561-12.568391-7.83373-7.489386 12.5684-14.117925 11.46725 8.839064 1.78983.02768 1.43457-2.7765-2.63976-5.83199 2.53038-.825655 7.2833 3.580372 14.03184 1.635613 10.84669-1.549528z" 
    style="fill:#fff;fill-opacity:1;stroke:none;stroke-width:7.18110228;stroke-linecap:butt;stroke-linejoin:round;stroke-miterlimit:4;stroke-dasharray:none;stroke-opacity:1" 
    transform="translate(-28.485885 -17.820596)"/>
  <path 
    d="M429.76773 65.917779a3.5909102 3.5909102 0 0 0-1.94336.470703l-19.28906 11.023437-9.70898 1.386719-12.95508-1.511719-6.72852-3.30664a3.5909102 3.5909102 0 0 0-2.69726-.191406l-2.53125.826171a3.5909102 3.5909102 0 0 0-2.15625 4.892579l.3457.763671-6.93555-5.345703a3.5909102 3.5909102 0 0 0-4.87304.457032l-12.56836 14.117192a3.5909102 3.5909102 0 0 0 .20117 4.98242l6.91797 6.615225 1.4707 11.31055a3.5909102 3.5909102 0 0 0 1.4668 2.45312l2.57617 1.84961 4.94141 10.91797a3.5909102 3.5909102 0 0 0 2.70898 2.06641l7.58984 1.20312.0606.60742-3.97656 3.34571a3.5909102 3.5909102 0 0 0-1.2461 2.26953l-.94726 7.05859a3.5909102 3.5909102 0 0 0-.0195.77344l1.80664 21.86523a3.5909102 3.5909102 0 0 0 .19726.91211l8.26368 23.15625a3.5909102 3.5909102 0 0 0 1.91015 2.06836l7.66211 3.44336a3.5909102 3.5909102 0 0 0 2.2793.21875 3.5909102 3.5909102 0 0 0-.0899.65235l-1.63671 37.27539a3.5909102 3.5909102 0 0 0 1.13085 2.77734l4.81055 4.50977-8.13672 14.11914-6.66992 3.5625a3.5909102 3.5909102 0 0 0-1.77344 4.10742l1.41211 5.19922-1.20898 5.86133-12.17774-6.0879a3.5909102 3.5909102 0 0 0-3.72851.31641l-18.42188 13.51563a3.5909102 3.5909102 0 0 0-1.09961 1.31054l-5.99414 12.19532-4.02148-1.69532a3.5909102 3.5909102 0 0 0-4.32227 1.22852l-2.32421 3.27148a3.5909102 3.5909102 0 0 0-.60157 2.7461l2.06641 10.93359a3.5909102 3.5909102 0 0 0 .8125 1.68164l2.95312 3.41211-2.60156 2.98633a3.5909102 3.5909102 0 0 0-.33984 4.25586l11.10547 17.82031a3.5909102 3.5909102 0 0 0 2.89062 1.6875l8.72852.38281 6.78515 4.95508a3.5909102 3.5909102 0 0 0 2.72461.64063l7.43555-1.27539 5.33398 4.32421-1.49218 10.50977-4.18555 6.20313a3.5909102 3.5909102 0 0 0 1.82422 5.4082l20.83203 7.05859a3.5909102 3.5909102 0 0 0 4.19922-1.50195l2.02148-3.24219 2.74024.41797a3.5909102 3.5909102 0 0 0 3.72461-1.88867l3.48434-6.67383 34.58984 16.26758a3.5909102 3.5909102 0 0 0 3.4375-.20899l18.76758-11.79492a3.5909102 3.5909102 0 0 0 1.08399-1.05859l1.76172-2.66406 4.61718 1.79296a3.5909102 3.5909102 0 0 0 3.04102-.20703l7.91992-4.39062a3.5909102 3.5909102 0 0 0 1.22266-1.11328l1.78125-2.60352 7.5664-4.41406a3.5909102 3.5909102 0 0 0 1.22852-5.01563l-3.50977-5.57031-.68945-6.82226a3.5909102 3.5909102 0 0 0-.88281-2.01758l-10.74219-12.14649-3.98437-10.89843a3.5909102 3.5909102 0 0 0-.79297-1.26368l-7.23047-7.46679-.25-1.0586 1.60547-1.12304 2.07226-.28907 1.42578.97266 1.07032 2.95508a3.5909102 3.5909102 0 0 0 1.93359 2.06836l7.66211 3.35742a3.5909102 3.5909102 0 0 0 2.2832.20117l7.49024-1.80859a3.5909102 3.5909102 0 0 0 2.74023-3.25781l.77539-11.96485a3.5909102 3.5909102 0 0 0-.0137-.625l-2.20508-20.08984 1.87305-28.86914a3.5909102 3.5909102 0 0 0-1.33008-3.03125l-2.29492-1.84571-1.625-26.39453a3.5909102 3.5909102 0 0 0-.58594-1.75781l-5.85547-8.86719a3.5909102 3.5909102 0 0 0-2.35351-1.55468l-3.14453-.57227-13.70118-8.20508-8.03711-9.92187a3.5909102 3.5909102 0 0 0-5.74023.21484l-3.67578 5.30078-2.95703-7.03906 1.80664-3.79883a3.5909102 3.5909102 0 0 0 .3457-1.68555l-.37695-9.48632 5.86133-.35743a3.5909102 3.5909102 0 0 0 3.03125-5.10937l-2.20118-4.68945 1.89649-2.2793a3.5909102 3.5909102 0 0 0 .51758-.83008l3.70117-8.26367a3.5909102 3.5909102 0 0 0-.66016-3.92578l-14.66601-15.60547-7.39453-9.92774 12.43945-13.47656a3.5909102 3.5909102 0 0 0 .66016-3.85547l-11.70701-27.201164a3.5909102 3.5909102 0 0 0-.38672-.683593l-4.47656-6.199219a3.5909102 3.5909102 0 0 0-2.75-1.484375zm-1.18164 8.30664 2.35547 3.261719 10.62891 24.697262-12.88086 13.95508a3.5909102 3.5909102 0 0 0-.24024 4.58007l9.29688 12.48243a3.5909102 3.5909102 0 0 0 .26367.31445l13.16797 14.00977-2.52344 5.63085-3.04101 3.65626a3.5909102 3.5909102 0 0 0-.49024 3.82226l.92383 1.96875-4.08984.25a3.5909102 3.5909102 0 0 0-3.36914 3.72656l.48046 12.11328-2.11718 4.45118a3.5909102 3.5909102 0 0 0-.0664 2.93359l4.99219 11.88086a3.5909102 3.5909102 0 0 0 3.77929 2.16797l3.27149-.43164a3.5909102 3.5909102 0 0 0 2.48242-1.51367l2.52344-3.64063 5.42187 6.69531a3.5909102 3.5909102 0 0 0 .94532.82227l14.80664 8.86523a3.5909102 3.5909102 0 0 0 1.20312.45313l2.2793.41406 4.48047 6.78711 1.66211 27.01953a3.5909102 3.5909102 0 0 0 1.33203 2.57617l2.07812 1.67188-1.77344 27.32226a3.5909102 3.5909102 0 0 0 .0137.625l2.20312 20.08985-.58203 9.01562-3.74414.9043-5.14258-2.25391-.93945-2.59765a3.5909102 3.5909102 0 0 0-1.35156-1.74414l-3.5293-2.41016a3.5909102 3.5909102 0 0 0-2.52344-.58984l-4.30469.60156a3.5909102 3.5909102 0 0 0-1.56054.61523l-4.30469 3.01368a3.5909102 3.5909102 0 0 0-1.43555 3.76367l1.03321 4.39062a3.5909102 3.5909102 0 0 0 .91601 1.67383l7.38867 7.63086 3.95508 10.81836a3.5909102 3.5909102 0 0 0 .6836 1.14648l10.42382 11.78711.65821 6.51172a3.5909102 3.5909102 0 0 0 .53515 1.55274l1.97852 3.14062-5.05469 2.94727a3.5909102 3.5909102 0 0 0-1.1543 1.07422l-1.75781 2.57031-5.70508 3.16211-5.74804-2.23047a3.5909102 3.5909102 0 0 0-4.29492 1.36719l-2.92969 4.43164-16.44727 10.33593-35.92969-16.89843a3.5909102 3.5909102 0 0 0-4.71093 1.58789l-3.89063 7.45312-2.54297-.38867a3.5909102 3.5909102 0 0 0-3.58789 1.65234l-1.76758 2.83594-13.67968-4.63672 2.01562-2.98633a3.5909102 3.5909102 0 0 0 .57813-1.50585l1.89453-13.3418a3.5909102 3.5909102 0 0 0-1.29492-3.29492l-8.17774-6.62891a3.5909102 3.5909102 0 0 0-2.86719-.74805l-7.54101 1.29102-6.43555-4.69922a3.5909102 3.5909102 0 0 0-1.96094-.6875l-7.92382-.34766-8.69922-13.95898 2.90429-3.33398a3.5909102 3.5909102 0 0 0 .006-4.70899l-4.35937-5.03516-1.51563-8.02539 4.17579 1.75977a3.5909102 3.5909102 0 0 0 4.61718-1.72461l7.10156-14.44531 15.94336-11.69727 14.39649 7.19727a3.5909102 3.5909102 0 0 0 5.12109-2.48828l2.32422-11.27539a3.5909102 3.5909102 0 0 0-.0508-1.66602l-.88672-3.26562 5.05274-2.69922a3.5909102 3.5909102 0 0 0 1.41992-1.37305l10.07031-17.47656a3.5909102 3.5909102 0 0 0-.6543-4.41211l-5.68359-5.32813 1.43164-32.6289 18.55078-2.52344a3.5909102 3.5909102 0 0 0 2.71484-5.1875l-4.64843-9.125a3.5909102 3.5909102 0 0 0-4.4336-1.74219l-19.80468 7.2461-4.93164-2.2168-7.5918-21.27344-1.73828-21.00976.71093-5.29688 4.36133-3.66992a3.5909102 3.5909102 0 0 0 1.26172-3.09766l-.51758-5.25195a3.5909102 3.5909102 0 0 0-3.01171-3.19531l-8.41797-1.33204-4.53907-10.03124a3.5909102 3.5909102 0 0 0-1.17773-1.43555l-2.0918-1.50195-1.43359-11.023435a3.5909102 3.5909102 0 0 0-1.08008-2.13282l-5.32812-5.09374 8.03906-9.03126 8.81836 6.79688a3.5909102 3.5909102 0 0 0 2.13672.74609l1.78906.0273a3.5909102 3.5909102 0 0 0 3.24609-1.94141l1.4336-2.77734a3.5909102 3.5909102 0 0 0 .28515-2.54297l2.11524 1.04101a3.5909102 3.5909102 0 0 0 1.16797.34375l14.0332 1.63477a3.5909102 3.5909102 0 0 0 .92187-.0117l10.84751-1.5488a3.5909102 3.5909102 0 0 0 1.27344-.4375zM410.20328 189.8416l.9082 1.78321-9.19922 1.25z" 
    style="color:#000;font-style:normal;font-variant:normal;font-weight:400;font-stretch:normal;font-size:medium;line-height:normal;font-family:sans-serif;font-variant-ligatures:normal;font-variant-position:normal;font-variant-caps:normal;font-variant-numeric:normal;font-variant-alternates:normal;font-feature-settings:normal;text-indent:0;text-align:start;text-decoration:none;text-decoration-line:none;text-decoration-style:solid;text-decoration-color:#000;letter-spacing:normal;word-spacing:normal;text-transform:none;writing-mode:lr-tb;direction:ltr;text-orientation:mixed;dominant-baseline:auto;baseline-shift:baseline;text-anchor:start;white-space:normal;shape-padding:0;clip-rule:nonzero;display:inline;overflow:visible;visibility:visible;opacity:1;isolation:auto;mix-blend-mode:normal;color-interpolation:sRGB;color-interpolation-filters:linearRGB;solid-color:#000;solid-opacity:1;vector-effect:none;fill:#fff;fill-opacity:1;fill-rule:nonzero;stroke:none;stroke-width:7.18110228;stroke-linecap:butt;stroke-linejoin:round;stroke-miterlimit:4;stroke-dasharray:none;stroke-dashoffset:0;stroke-opacity:1;color-rendering:auto;image-rendering:auto;shape-rendering:auto;text-rendering:auto;enable-background:accumulate" transform="translate(-28.485885 -17.820596)"/>
  <path 
    d="M355.01367 18.998047c-112.79599 0-204.47851 91.682523-204.47851 204.478513 0 112.79599 91.68252 204.47852 204.47851 204.47852s204.47852-91.68253 204.47852-204.47852S467.80966 18.998047 355.01367 18.998047zm0 22.677734c100.54034 0 181.80078 81.260439 181.80078 181.800779s-81.26044 181.80078-181.80078 181.80078-181.80078-81.26044-181.80078-181.80078S254.47333 41.675781 355.01367 41.675781z" 
    style="color:#000;font-style:normal;font-variant:normal;font-weight:400;font-stretch:normal;font-size:medium;line-height:normal;font-family:sans-serif;font-variant-ligatures:normal;font-variant-position:normal;font-variant-caps:normal;font-variant-numeric:normal;font-variant-alternates:normal;font-feature-settings:normal;text-indent:0;text-align:start;text-decoration:none;text-decoration-line:none;text-decoration-style:solid;text-decoration-color:#000;letter-spacing:normal;word-spacing:normal;text-transform:none;writing-mode:lr-tb;direction:ltr;text-orientation:mixed;dominant-baseline:auto;baseline-shift:baseline;text-anchor:start;white-space:normal;shape-padding:0;clip-rule:nonzero;display:inline;overflow:visible;visibility:visible;opacity:1;isolation:auto;mix-blend-mode:normal;color-interpolation:sRGB;color-interpolation-filters:linearRGB;solid-color:#000;solid-opacity:1;vector-effect:none;fill:#fff;fill-opacity:1;fill-rule:nonzero;stroke:none;stroke-width:0;stroke-linecap:round;stroke-linejoin:miter;stroke-miterlimit:4;stroke-dasharray:none;stroke-dashoffset:0;stroke-opacity:1;marker:none;paint-order:markers fill stroke;color-rendering:auto;image-rendering:auto;shape-rendering:auto;text-rendering:auto;enable-background:accumulate" 
    transform="translate(-28.485885 -17.820596)"/>
</svg>
